PathFileType	4	(X/Y/Z)	1H_rest_med_left.trc
DataRate	CameraRate	NumFrames	NumMarkers	Units	OrigDataRate	OrigDataStartFrame	OrigNumFrames
250.00	250.00	18	18	mm	250.00	1	23478
Frame#	Time	c7	r_should	l_should	clavicle	r_upa	r_elb_l	r_elb_m	r_low	r_wri_l	r_wri_m	r_met	l_upa	l_elb_l	l_elb_m	l_low	l_wri_l	l_wri_m	l_met
	X1	Y1	Z1	X2	Y2	Z2	X3	Y3	Z3	X4	Y4	Z4	X5	Y5	Z5	X6	Y6	Z6	X7	Y7	Z7	X8	Y8	Z8	X9	Y9	Z9	X10	Y10	Z10	X11	Y11	Z11	X12	Y12	Z12	X13	Y13	Z13	X14	Y14	Z14	X15	Y15	Z15	X16	Y16	Z16	X17	Y17	Z17	X18	Y18	Z18
1	0.00000	652.38422	1419.47961	235.79294	723.94928	1375.98938	386.68237	682.28253	1346.49390	71.80387	772.10773	1271.05505	227.32950	727.15924	1182.44165	485.97882	722.08728	1097.47266	520.03058	657.63605	1058.32715	471.13736	772.51678	922.29663	509.61023	733.48645	836.64648	520.89337	791.80402	856.38611	480.39615	833.88281	780.34344	508.54260	662.93744	1156.86523	8.17704	669.66400	1048.07275	-3.51101	622.11700	1014.09875	69.25195	687.78107	877.84424	-12.72101	712.82532	802.72253	10.38972	641.76324	787.05579	6.71139	732.35382	720.92816	-22.63661
2	0.00400	652.34418	1419.47498	235.59258	723.94415	1376.00159	386.47687	682.17181	1346.41931	71.61844	772.05371	1271.04065	227.11003	727.19556	1182.49475	485.83615	722.16095	1097.58142	519.96997	657.65808	1058.40552	471.14410	772.58044	922.38269	509.53000	733.57166	836.75342	520.91504	791.86536	856.46082	480.33521	833.95233	780.42267	508.49164	662.90021	1156.82031	8.03091	669.64899	1048.00684	-3.68900	622.22192	1014.02161	69.12574	687.98895	877.83087	-12.86416	713.21198	802.75128	10.27701	642.19904	786.99469	6.66154	732.84698	721.00342	-22.75206
3	0.00800	652.31421	1419.47437	235.39809	723.94464	1376.01306	386.27789	682.06763	1346.34448	71.43581	772.00140	1271.01794	226.90451	727.23108	1182.54260	485.70221	722.23590	1097.68616	519.91473	657.70105	1058.48987	471.14792	772.64911	922.46539	509.45581	733.63599	836.93604	520.99902	791.93738	856.64569	480.12509	834.03143	780.50110	508.44241	662.87146	1156.76929	7.89045	669.62646	1047.93640	-3.87142	622.32837	1013.94354	69.00974	688.19800	877.81482	-13.00891	713.60706	802.78363	10.16563	642.63562	786.94287	6.60679	733.36646	721.08258	-22.87212
4	0.01200	652.28699	1419.47815	235.19038	723.93896	1376.03674	386.08063	681.97491	1346.27905	71.23689	771.94916	1271.00012	226.69968	727.26239	1182.59924	485.57162	722.29767	1097.78711	519.84949	657.76953	1058.56445	471.11673	772.71777	922.54877	509.39322	733.67200	837.20129	521.13129	792.03894	856.97437	479.73569	834.11853	780.59375	508.38364	662.83649	1156.71448	7.73708	669.60016	1047.86804	-4.05569	622.43433	1013.86359	68.87780	688.40918	877.80151	-13.15000	713.99652	802.82788	10.05339	643.06769	786.88519	6.54089	733.90875	721.17114	-22.99398
5	0.01600	652.26428	1419.48853	234.98166	723.93469	1376.06287	385.87219	681.88678	1346.22498	71.03687	771.89813	1270.98816	226.49571	727.29218	1182.66748	485.44525	722.34589	1097.88367	519.76227	657.82715	1058.63342	471.05026	772.78741	922.64166	509.32645	733.74817	837.34033	521.12244	792.11761	857.13568	479.60181	834.20850	780.69482	508.31329	662.78918	1156.65906	7.56189	669.57391	1047.81396	-4.24765	622.51416	1013.77692	68.72183	688.62402	877.79303	-13.29195	714.39038	802.88666	9.93633	643.49823	786.82538	6.44970	734.45294	721.27747	-23.11733
6	0.02000	652.23956	1419.49634	234.78351	723.93689	1376.08899	385.66702	681.80212	1346.17334	70.83643	771.85388	1270.97363	226.29570	727.28394	1182.69226	485.41666	722.38074	1097.96265	519.65680	657.85638	1058.68457	470.96881	772.85999	922.74384	509.26114	733.84906	837.36884	520.99329	792.16394	857.13477	479.67880	834.31372	780.81274	508.24100	662.71588	1156.58875	7.36181	669.54492	1047.76294	-4.44001	622.56116	1013.68152	68.54649	688.83990	877.78845	-13.43077	714.78632	802.94385	9.82485	643.90887	786.76807	6.34796	734.99628	721.38586	-23.23244
7	0.02400	652.21649	1419.50195	234.58975	723.94312	1376.10217	385.46725	681.71539	1346.11157	70.64088	771.81403	1270.95361	226.09502	727.23273	1182.64746	485.51346	722.39996	1098.01758	519.54498	657.87164	1058.71704	470.88742	772.93243	922.84076	509.19556	733.97809	837.28406	520.78223	792.20020	856.98584	479.95004	834.42444	780.93231	508.17401	662.62091	1156.50208	7.14885	669.50647	1047.69971	-4.62821	622.58539	1013.56671	68.35298	689.05231	877.77881	-13.56357	715.19629	803.00238	9.71627	644.30560	786.70105	6.24058	735.53992	721.49799	-23.34441
8	0.02800	652.19043	1419.50134	234.39786	723.95197	1376.10791	385.26181	681.62793	1346.04810	70.44992	771.76953	1270.93372	225.90054	727.22729	1182.67224	485.45276	722.40973	1098.06445	519.44495	657.88281	1058.75195	470.82312	773.00977	922.93701	509.12927	734.07452	837.31720	520.67365	792.26715	857.01428	479.96927	834.53357	781.04626	508.09665	662.52362	1156.41260	6.94026	669.46283	1047.63708	-4.81125	622.60376	1013.44098	68.16407	689.26025	877.77301	-13.68965	715.61304	803.07214	9.60668	644.70569	786.63361	6.14086	736.07605	721.60962	-23.44898
9	0.03200	652.15894	1419.49951	234.20116	723.95172	1376.11829	385.05460	681.53638	1345.98462	70.26275	771.73291	1270.91980	225.70238	727.23096	1182.72449	485.35562	722.42883	1098.13123	519.35803	657.88696	1058.79065	470.78214	773.08679	923.04346	509.05890	734.16205	837.38849	520.60870	792.34705	857.10150	479.91068	834.64655	781.16748	508.01218	662.45398	1156.34143	6.76175	669.41760	1047.58435	-4.99783	622.64062	1013.33795	68.00284	689.46124	877.78284	-13.81133	716.02747	803.15790	9.48944	645.11694	786.57794	6.06010	736.61627	721.72186	-23.54274
10	0.03600	652.12866	1419.50037	233.99788	723.95197	1376.13342	384.84839	681.44690	1345.92505	70.07602	771.69440	1270.90674	225.49370	727.23468	1182.78650	485.25662	722.46765	1098.22595	519.28864	657.90350	1058.84741	470.75165	773.16437	923.15613	508.97885	734.25305	837.48407	520.57324	792.43433	857.21497	479.82913	834.75970	781.29425	507.92419	662.39819	1156.29163	6.60216	669.37079	1047.54395	-5.19091	622.70117	1013.26025	67.85529	689.66040	877.80157	-13.93524	716.44165	803.25085	9.36755	645.55096	786.54242	5.99714	737.16260	721.84644	-23.64230
11	0.04000	652.10364	1419.50000	233.78961	723.95679	1376.15259	384.63705	681.36237	1345.87000	69.89404	771.65332	1270.88843	225.28529	727.24506	1182.85681	485.15714	722.51514	1098.34290	519.22693	657.94147	1058.93250	470.73306	773.24304	923.26727	508.89694	734.34442	837.67023	520.61469	792.56494	857.46075	479.62378	834.88623	781.43463	507.84039	662.35284	1156.26379	6.43870	669.32666	1047.51062	-5.39318	622.78638	1013.21600	67.72123	689.86401	877.82330	-14.06301	716.85913	803.34644	9.25289	646.00378	786.53644	5.94602	737.72253	721.99121	-23.74808
12	0.04400	652.08386	1419.50598	233.58568	723.96320	1376.17432	384.43369	681.28204	1345.82849	69.71260	771.61041	1270.87036	225.08327	727.26379	1182.95166	485.05872	722.55829	1098.46436	519.16394	657.98901	1059.03870	470.69772	773.31989	923.38348	508.81909	734.42682	837.96490	520.72217	792.75531	857.88440	479.25192	835.01489	781.57324	507.75082	662.31049	1156.25220	6.25777	669.29010	1047.48792	-5.59408	622.88904	1013.18646	67.58439	690.07733	877.85272	-14.20021	717.28741	803.45862	9.14839	646.46631	786.54773	5.90195	738.29541	722.15564	-23.85070
13	0.04800	652.07062	1419.51953	233.39191	723.97662	1376.20398	384.23163	681.20776	1345.80127	69.52454	771.56689	1270.86206	224.88182	727.28491	1183.05664	484.95917	722.59839	1098.58081	519.08313	658.02679	1059.14258	470.64114	773.39166	923.50861	508.73828	734.55005	838.08563	520.63580	792.86578	857.98816	479.22491	835.14728	781.72827	507.65359	662.25720	1156.24988	6.06316	669.26257	1047.47583	-5.79440	622.97516	1013.16724	67.41292	690.29980	877.89148	-14.33809	717.71497	803.58765	9.04018	646.93188	786.54517	5.84214	738.87494	722.32684	-23.95428
14	0.05200	652.05597	1419.53821	233.18825	723.99323	1376.24292	384.02936	681.13092	1345.79041	69.33351	771.52704	1270.85913	224.67575	727.28979	1183.14929	484.85989	722.61475	1098.68811	518.98682	658.05548	1059.22864	470.56812	773.46991	923.64423	508.65353	734.68835	838.07385	520.40802	792.86542	857.83759	479.41577	835.28339	781.89838	507.55429	662.18243	1156.23730	5.86407	669.24060	1047.47388	-5.98945	623.02899	1013.14459	67.22195	690.51752	877.95190	-14.47838	718.12891	803.72742	8.94066	647.39484	786.52332	5.76009	739.46606	722.51807	-24.06273
15	0.05600	652.03888	1419.55725	232.98456	724.00525	1376.28455	383.82260	681.04437	1345.78320	69.14635	771.49097	1270.85547	224.47624	727.27466	1183.21851	484.76056	722.61011	1098.77478	518.87781	658.07819	1059.29041	470.48312	773.55133	923.78790	508.56668	734.79877	838.13806	520.27319	792.94250	857.90704	479.39648	835.42468	782.07043	507.44904	662.08435	1156.19495	5.67553	669.22534	1047.48047	-6.18538	623.05011	1013.10492	67.01882	690.73651	878.02649	-14.61784	718.55121	803.87506	8.83533	647.84222	786.48132	5.66763	740.05585	722.73029	-24.16440
16	0.06000	652.02057	1419.57068	232.78392	724.01440	1376.31787	383.61679	680.96399	1345.76904	68.96331	771.45514	1270.84485	224.28734	727.29254	1183.33057	484.51382	722.59686	1098.85071	518.76819	658.08429	1059.33044	470.40561	773.62836	923.92871	508.48318	734.88849	838.21924	520.16132	793.03503	858.02588	479.32999	835.57001	782.24115	507.34406	661.99341	1156.14844	5.49680	669.21179	1047.48340	-6.37258	623.06256	1013.03790	66.80607	690.95984	878.10083	-14.75153	718.96741	804.01599	8.73969	648.27838	786.43170	5.57253	740.64490	722.95050	-24.25210
17	0.06400	651.99866	1419.57617	232.58632	724.02039	1376.33765	383.41382	680.88763	1345.74707	68.79099	771.41571	1270.82971	224.10056	727.36566	1183.53943	484.08246	722.58569	1098.93103	518.66278	658.07654	1059.37451	470.33875	773.71051	924.07452	508.40240	734.98474	838.31415	520.06561	793.13562	858.16309	479.24069	835.71094	782.40991	507.23849	661.91394	1156.10925	5.32927	669.19623	1047.48108	-6.55394	623.06775	1012.97260	66.59543	691.18677	878.16980	-14.88176	719.37610	804.15405	8.64481	648.71771	786.39630	5.47949	741.23773	723.16766	-24.33445
18	0.06800	651.97736	1419.57886	232.40082	724.02325	1376.35791	383.21426	680.81427	1345.73181	68.61674	771.37390	1270.81201	223.90878	727.37286	1183.65125	483.88565	722.57593	1099.02612	518.57965	658.06836	1059.44324	470.28824	773.79706	924.22516	508.31735	735.09021	838.43494	519.99426	793.24249	858.30969	479.14545	835.85040	782.57190	507.13535	661.84973	1156.09766	5.16664	669.17590	1047.47937	-6.72864	623.09717	1012.93292	66.40264	691.40515	878.24426	-15.01125	719.78339	804.30542	8.54974	649.14874	786.39685	5.40388	741.83313	723.38965	-24.40931
